<?xml version="1.0" standalone="no"?>
<!DOCTYPE svg PUBLIC "-//W3C//DTD SVG 20010904//EN"
 "http://www.w3.org/TR/2001/REC-SVG-20010904/DTD/svg10.dtd">
<svg version="1.0" xmlns="http://www.w3.org/2000/svg"
 width="700.000000pt" height="700.000000pt" viewBox="0 0 700.000000 700.000000"
 preserveAspectRatio="xMidYMid meet">
<metadata>
Created by potrace 1.14, written by Peter Selinger 2001-2017
</metadata>
<g transform="translate(0.000000,700.000000) scale(0.100000,-0.100000)"
fill="#000000" stroke="none">
<path d="M3457 6914 c-1 -1 -55 -4 -121 -8 -101 -6 -176 -14 -371 -42 -16 -2
-37 -6 -45 -9 -8 -2 -32 -7 -53 -10 -133 -21 -522 -135 -642 -189 -16 -8 -61
-26 -100 -41 -103 -41 -377 -183 -494 -256 -85 -53 -243 -164 -301 -212 -9 -6
-38 -30 -65 -52 -109 -87 -326 -298 -417 -405 -283 -334 -489 -694 -626 -1095
-44 -128 -108 -371 -118 -445 -3 -25 -8 -48 -10 -51 -1 -3 -6 -28 -9 -55 -3
-27 -8 -58 -10 -69 -15 -73 -31 -336 -29 -499 4 -444 80 -808 258 -1241 90
-217 131 -286 274 -461 48 -60 110 -138 136 -174 56 -75 156 -173 300 -298 56
-47 153 -136 216 -197 274 -262 586 -483 942 -665 221 -113 464 -195 698 -236
25 -4 47 -8 50 -9 3 -1 34 -5 70 -10 36 -4 76 -9 90 -11 167 -22 701 -21 818
0 9 2 53 7 96 11 43 4 86 8 95 10 34 6 98 16 131 20 267 33 750 171 1020 292
305 137 500 256 750 458 42 34 243 238 280 284 184 230 336 499 443 786 87
232 157 509 192 760 3 23 7 50 9 60 2 11 7 54 11 95 4 41 9 84 11 94 22 120
22 824 -1 1006 -21 170 -28 218 -31 235 -10 49 -16 81 -19 100 -6 45 -45 196
-75 290 -174 545 -560 1100 -986 1421 -62 46 -114 84 -117 84 -3 0 -31 17 -63
39 -60 39 -100 62 -234 134 -41 22 -142 81 -225 131 -82 49 -211 118 -287 153
-120 55 -399 151 -483 167 -16 3 -68 14 -115 24 -47 11 -117 25 -157 32 -39 6
-80 13 -90 15 -10 1 -47 6 -83 10 -36 4 -76 9 -90 11 -42 7 -417 23 -423 18z"/>
</g>
</svg>
