<?xml version="1.0" standalone="no"?>
<!DOCTYPE svg PUBLIC "-//W3C//DTD SVG 20010904//EN"
 "http://www.w3.org/TR/2001/REC-SVG-20010904/DTD/svg10.dtd">
<svg version="1.0" xmlns="http://www.w3.org/2000/svg"
 width="700.000000pt" height="700.000000pt" viewBox="0 0 700.000000 700.000000"
 preserveAspectRatio="xMidYMid meet">
<metadata>
Created by potrace 1.14, written by Peter Selinger 2001-2017
</metadata>
<g transform="translate(0.000000,700.000000) scale(0.100000,-0.100000)"
fill="#000000" stroke="none">
<path d="M3420 6929 c-142 -12 -380 -53 -520 -90 -63 -16 -191 -45 -285 -64
-305 -61 -529 -137 -800 -270 -460 -227 -842 -543 -1149 -952 -126 -167 -212
-308 -311 -508 -276 -559 -380 -1159 -309 -1790 109 -974 691 -1876 1534
-2376 58 -34 152 -99 210 -144 549 -429 1189 -661 1880 -682 320 -9 578 18
875 91 917 227 1687 849 2105 1701 164 335 262 669 312 1070 7 56 12 208 12
345 -1 260 -13 389 -59 629 -13 69 -31 182 -40 251 -106 835 -545 1605 -1210
2123 -227 177 -587 380 -835 471 -461 169 -931 234 -1410 195z m670 -180 c52
-6 158 -24 235 -40 885 -184 1647 -764 2072 -1577 62 -119 60 -121 -17 -12
-152 213 -386 463 -586 624 -94 76 -229 169 -461 318 -32 21 -113 79 -180 130
-328 250 -692 426 -1122 543 -126 35 -123 36 59 14z m-425 -109 c167 -25 380
-75 526 -124 107 -36 353 -136 347 -141 -2 -2 -41 5 -88 15 -369 81 -829 92
-1200 29 -685 -115 -1290 -432 -1775 -930 -350 -360 -588 -751 -752 -1234 -49
-145 -51 -125 -8 90 203 1016 937 1873 1918 2239 198 74 294 86 647 81 183 -3
280 -9 385 -25z m326 -350 c394 -31 743 -124 1099 -292 95 -45 131 -69 207
-137 415 -374 750 -941 887 -1502 111 -455 115 -950 11 -1414 -157 -701 -596
-1360 -1188 -1786 -180 -129 -376 -240 -570 -323 -290 -124 -385 -141 -752
-140 -501 1 -890 92 -1340 314 -346 170 -664 410 -913 689 -307 345 -535 758
-663 1199 -29 97 -32 123 -36 289 -33 1179 627 2269 1692 2793 99 49 223 104
275 124 424 155 865 219 1291 186z m-2252 -14 c-2 -2 -47 -39 -99 -82 -130
-107 -327 -306 -434 -439 -381 -475 -607 -1001 -693 -1615 -13 -95 -17 -192
-17 -410 0 -301 7 -380 59 -650 13 -69 26 -152 30 -185 51 -489 234 -988 527
-1435 22 -34 5 -20 -71 58 -390 400 -670 924 -785 1467 -51 247 -60 341 -61
640 0 292 6 362 51 597 157 815 678 1564 1390 1998 84 52 119 71 103 56z
m4363 -1066 c261 -310 464 -683 583 -1075 45 -151 59 -287 51 -492 -11 -262
-35 -430 -96 -668 -181 -712 -623 -1342 -1235 -1757 -113 -77 -205 -133 -205
-126 0 3 47 45 106 93 521 437 903 1071 1054 1750 188 845 22 1742 -453 2460
l-40 60 78 -75 c42 -41 113 -118 157 -170z m663 -2497 c-111 -611 -394 -1151
-835 -1594 -91 -92 -211 -203 -268 -248 -879 -693 -2047 -850 -3085 -414 -59
25 -106 47 -104 50 3 2 33 -3 68 -11 466 -106 1026 -95 1499 30 52 14 172 41
266 59 306 62 559 149 830 285 771 388 1375 1099 1620 1907 16 51 30 90 32 88
2 -2 -8 -70 -23 -152z m-5566 -993 c100 -127 361 -386 491 -489 355 -282 764
-487 1194 -601 136 -36 98 -40 -99 -11 -278 41 -570 129 -837 251 -155 71
-216 117 -377 286 -182 190 -345 414 -474 649 -85 155 -92 178 -27 85 30 -41
87 -118 129 -170z"/>
<path d="M1660 5230 l0 -40 -40 0 -40 0 0 -100 0 -100 216 -2 216 -3 526 -825
525 -825 -7 -465 c-4 -256 -11 -528 -16 -604 -11 -160 -24 -190 -106 -244 -46
-31 -52 -32 -151 -32 l-103 0 0 -135 0 -135 795 0 795 0 0 150 0 149 -127 3
-128 3 -38 75 -37 75 6 590 6 590 70 105 c768 1143 917 1371 965 1476 36 79
60 87 266 92 l167 4 0 119 0 119 -645 0 -646 0 3 -112 3 -112 74 -12 c97 -16
125 -37 129 -95 3 -42 -13 -71 -313 -579 -174 -294 -318 -536 -319 -538 -6 -5
-565 1026 -576 1064 -31 104 9 147 136 148 l74 1 0 117 0 118 -840 0 -840 0 0
-40z m1340 -125 c0 -2 -10 -24 -22 -47 -30 -57 -30 -160 0 -238 12 -30 132
-258 268 -505 135 -248 291 -534 347 -637 77 -141 105 -184 113 -175 6 7 183
303 393 658 421 715 426 725 402 832 -7 31 -21 67 -32 80 -10 14 -19 28 -19
31 0 3 102 6 227 6 215 0 225 -1 211 -17 -9 -10 -32 -50 -52 -90 -20 -40 -75
-134 -123 -210 -84 -133 -649 -979 -834 -1249 l-90 -132 -6 -631 -6 -631 28
-67 c34 -80 67 -137 103 -176 l26 -27 -452 0 -453 0 59 57 c117 116 120 136
129 905 l6 547 -533 838 c-293 461 -540 848 -548 861 l-14 22 436 0 c240 0
436 -2 436 -5z"/>
</g>
</svg>
