<?xml version="1.0" encoding="utf-8"?>
<!-- Generator: Adobe Illustrator 28.1.0, SVG Export Plug-In . SVG Version: 6.00 Build 0)  -->
<svg version="1.1" id="Layer_1" xmlns="http://www.w3.org/2000/svg" xmlns:xlink="http://www.w3.org/1999/xlink" x="0px" y="0px"
	 viewBox="0 0 512 512" style="enable-background:new 0 0 512 512;" xml:space="preserve">
<style type="text/css">
	.st0{fill:#C9DFF3;stroke:#C9DFF3;stroke-width:2;stroke-miterlimit:10;}
	.st1{fill:none;stroke:#A90432;stroke-width:12;stroke-miterlimit:10;}
	.st2{fill:#A90432;stroke:#A90432;stroke-width:12.4748;stroke-miterlimit:10;}
</style>
<g>
	<rect class="st0" width="512" height="512"/>
	<g>
		<circle class="st1" cx="236.2" cy="246.6" r="228.6"/>
		<circle class="st1" cx="270.3" cy="238.9" r="228.6"/>
		<circle class="st1" cx="275.9" cy="273.9" r="228.6"/>
	</g>
	<path class="st2" d="M127.1,135.1h121.4v5.4c0,0-28.5-0.8-12.4,27.7L282,252l52.5-88.8c0,0,11.6-19.4-13.6-22.7v-5.4h85.5v6.2
		h-15.7c0,0-13.4,0.2-16.1,9.5s-79.7,121.4-79.7,121.4l-0.8,92.5c0,0,5.8,17.4,11.6,17.4s13.6,0,13.6,0v10.7H210.5v-8.3h10.7
		c0,0,13.2-5.8,15.7-15.7c2.5-9.9,2.5-95,2.5-95l-82.6-129.7h-29.7C127.1,144.1,127.1,135.1,127.1,135.1z"/>
</g>
</svg>
