<?xml version="1.0" encoding="utf-8"?>
<!-- Generator: Adobe Illustrator 28.1.0, SVG Export Plug-In . SVG Version: 6.00 Build 0)  -->
<svg version="1.1" id="Layer_1" xmlns="http://www.w3.org/2000/svg" xmlns:xlink="http://www.w3.org/1999/xlink" x="0px" y="0px"
	 viewBox="0 0 512 512" style="enable-background:new 0 0 512 512;" xml:space="preserve">
<style type="text/css">
	.st0{fill:#C9DFF3;stroke:#C9DFF3;stroke-width:2;stroke-miterlimit:10;}
	.st1{fill:none;stroke:#A90432;stroke-width:12;stroke-miterlimit:10;}
</style>
<rect class="st0" width="512" height="512"/>
<g>
	<g>
		<circle class="st1" cx="236.24" cy="246.58" r="228.56"/>
		<circle class="st1" cx="270.27" cy="238.95" r="228.56"/>
		<circle class="st1" cx="275.86" cy="273.9" r="228.56"/>
	</g>
	<path class="st1" d="M121.75,132.46h116.81v5.17c0,0-27.42-0.79-11.92,26.62l44.1,80.66l50.46-85.42c0,0,11.12-18.67-13.11-21.85
		v-5.17h82.25v5.96h-15.1c0,0-12.91,0.2-15.5,9.14c-2.58,8.94-76.68,116.81-76.68,116.81l-0.79,89c0,0,5.56,16.69,11.12,16.69
		s13.11,0,13.11,0v10.33H202v-7.95h10.33c0,0,12.71-5.56,15.1-15.1c2.38-9.54,2.38-91.38,2.38-91.38L150.36,141.2h-28.61V132.46z"/>
</g>
</svg>
