<?xml version="1.0" encoding="utf-8"?>
<!-- Generator: Adobe Illustrator 28.1.0, SVG Export Plug-In . SVG Version: 6.00 Build 0)  -->
<svg version="1.1" id="Layer_1" xmlns="http://www.w3.org/2000/svg" xmlns:xlink="http://www.w3.org/1999/xlink" x="0px" y="0px"
	 viewBox="0 0 512 512" style="enable-background:new 0 0 512 512;" xml:space="preserve">
<style type="text/css">
	.st0{fill:#A90432;}
	.st1{fill:#C9DFF3;}
</style>
<g>
	<text transform="matrix(1 0 0 1 -713.9337 -127.5388)" class="st0" style="font-family:'ArialMT'; font-size:569.5451px;">Y</text>
</g>
<g>
	<rect x="-0.44" y="0.41" class="st0" width="512" height="512"/>
	<rect x="8.82" y="8.67" class="st1" width="491.48" height="491.48"/>
	<polygon class="st0" points="64.68,50.26 134.85,50.26 264.5,255.46 397.03,50.26 464.34,50.26 289.86,301.39 290.76,486.15 
		232.5,486.15 232.8,302.3 	"/>
	<path class="st0" d="M375.23,167.16l57.41-13.74c0,0-16-95.06-128.38-123.86c0,0-112.09-26.82-194.26,55.34
		c0,0-54.21,50.26-57.04,145.69c-2.82,95.44,20.89,250.73,209.51,247.91c0,0,70.02,4.52,113.51-38.96s46.31-50.82,63.25-105.6
		l-57.04-15.81c0,0-19.2,121.98-141.18,111.25S112.83,285.43,112.83,282.01s-3.95-74.19,9.6-107.32s25.6-78.31,97.88-95.62
		s116.71,23.34,116.71,23.34S364.13,124.61,375.23,167.16z"/>
</g>
</svg>
