<?xml version="1.0" encoding="utf-8"?>
<!-- Generator: Adobe Illustrator 28.1.0, SVG Export Plug-In . SVG Version: 6.00 Build 0)  -->
<svg version="1.1" id="Layer_1" xmlns="http://www.w3.org/2000/svg" xmlns:xlink="http://www.w3.org/1999/xlink" x="0px" y="0px"
	 viewBox="0 0 512 512" style="enable-background:new 0 0 512 512;" xml:space="preserve">
<style type="text/css">
	.st0{fill:#A90432;}
	.st1{fill:none;stroke:#17FF4E;stroke-width:0.9826;stroke-miterlimit:10;}
	.st2{fill:#FDBE21;}
</style>
<path class="st0" d="M394.74,63.33c-3.97,4.74-10.84,5.73-16.04,2.38C343.35,42.86,301.22,29.6,256,29.6
	c-125.94,0-227.87,102.84-226.38,229.12C31.08,383,131.71,482.4,256,482.4c38.89,0,75.49-9.8,107.46-27.08
	c10.14-5.48,22.62,1,24.04,12.44l0.16,1.25c-38.23,23.68-83.31,37.36-131.59,37.37C118.1,506.42,5.61,393.97,5.61,256
	C5.61,117.71,117.72,5.61,256,5.61c54.96,0,105.79,17.71,147.09,47.74L394.74,63.33z"/>
<path class="st1" d="M482.4,256"/>
<path class="st0" d="M363.01,105.52c-3.1,3.69-8.48,4.46-12.54,1.85c-27.64-17.79-60.58-28.11-95.94-28.11
	c-98.47,0-178.17,80.07-177,178.38c1.14,96.76,79.82,174.15,177,174.15c30.41,0,59.02-7.63,84.02-21.08
	c7.93-4.27,17.69,0.78,18.8,9.69l0.13,0.97c-29.89,18.44-65.14,29.09-102.89,29.09c-107.88,0.03-195.83-87.52-195.83-194.93
	c0-107.67,87.66-194.94,195.77-194.94c42.97,0,82.71,13.79,115.01,37.17L363.01,105.52z"/>
<polygon class="st2" points="84.75,42.87 228.84,305.45 228.84,499.04 288.42,499.04 288.42,209.17 374.54,42.58 441.45,42.58 
	412.16,92.36 286.72,305.55 152.32,42.58 "/>
<path class="st0" d="M374.69,83.69c-3.47,4.23-9.48,5.12-14.03,2.13c-30.93-20.41-67.79-32.25-107.35-32.25
	c-110.19,0-199.37,91.84-198.07,204.62c1.28,110.99,89.32,199.76,198.07,199.76c34.03,0,66.05-8.75,94.02-24.18
	c8.87-4.89,19.79,0.89,21.03,11.11l0.14,1.12c-33.45,21.15-72.89,33.36-115.13,33.37C132.65,479.4,34.23,378.98,34.23,255.76
	c0-123.5,98.09-223.62,219.08-223.62c48.09,0,92.56,15.82,128.69,42.64L374.69,83.69z"/>
</svg>
