<?xml version="1.0" encoding="utf-8"?>
<!-- Generator: Adobe Illustrator 28.1.0, SVG Export Plug-In . SVG Version: 6.00 Build 0)  -->
<svg version="1.1" id="Layer_1" xmlns="http://www.w3.org/2000/svg" xmlns:xlink="http://www.w3.org/1999/xlink" x="0px" y="0px"
	 viewBox="0 0 512 512" style="enable-background:new 0 0 512 512;" xml:space="preserve">
<style type="text/css">
	.st0{fill:#606060;}
</style>
<g>
	<path class="st0" d="M460.75,66.58c0,0-76.29-68.6-159.67-62.96c-57.31,3.87-113.36,9.6-159.67,55.91l151.06,212.61l121.13-172.8
		l-7.06-4.8L293.12,256L153.08,60.09c0,0,59.95-51.58,148-47.44s114.4,33.51,153.18,59.48L460.75,66.58z"/>
	<path class="st0" d="M294.44,512h9.41V337.92L116.28,80.84c0,0-70.12,68.01-67.11,175.16c3.01,107.15,54.4,144.04,69.08,167.76
		c0,0,51.95,48,79.06,54.78s45.18,19.2,80.19,19.2v-8.47c0,0-53.27-5.65-79.25-20.71c-25.98-15.06-37.46-15.25-74.16-51.95
		s-61.74-97.69-61.74-120.19S48.8,246.82,68,177.55c0,0,22.96-62.87,47.44-81.69l179.01,244.52V512z"/>
	<path class="st0" d="M313.45,497.17v-7.53c0,0,86.96-6.4,141.55-60.99l6.96,6.96C461.97,435.62,398.91,494.91,313.45,497.17z"/>
</g>
</svg>
